<svg width="34" height="34" viewBox="0 0 34 34" fill="none" xmlns="http://www.w3.org/2000/svg">
<path fill-rule="evenodd" clip-rule="evenodd" d="M17 2.18876C8.42208 2.18876 1.47758 9.09784 1.47758 17.6063C1.47758 23.8538 5.22183 29.2301 10.6108 31.6483C11.1747 31.9019 11.7258 31.8013 12.1564 31.4783C12.3946 31.2929 12.5866 31.0548 12.7173 30.7827C12.8481 30.5106 12.9141 30.2119 12.9101 29.9101V29.1026L10.9877 28.8419C10.9734 28.84 10.9593 28.8376 10.9452 28.8348C9.8855 28.628 9.17008 28.2554 8.64592 27.7185C8.20533 27.2666 7.93617 26.7254 7.70808 26.2664L7.62875 26.1063C7.41794 25.6666 7.18774 25.2365 6.93883 24.8172C6.74758 24.514 6.59883 24.3582 6.4515 24.2604C6.0775 24.0125 5.71767 23.5918 5.71767 23.0662C5.71639 22.9149 5.74878 22.7652 5.81248 22.628C5.87619 22.4908 5.96962 22.3695 6.086 22.2728C6.30566 22.0989 6.57942 22.0077 6.8595 22.015C7.174 22.015 7.47008 22.1113 7.71658 22.2218C7.96875 22.3352 8.2195 22.4853 8.45325 22.6412C9.02275 23.0208 9.58375 23.4699 10.0583 24.0238C10.5527 24.599 10.9027 24.9645 11.4297 25.0396C11.8632 25.1019 12.3052 25.1033 12.6494 25.0878C12.6973 24.8152 12.7762 24.549 12.8846 24.2944C12.4641 24.1963 12.0494 24.0752 11.6422 23.9318C10.7157 23.6031 9.68292 23.0917 8.98875 22.3168C8.22658 21.4639 7.75483 20.7032 7.49133 19.8135C7.23492 18.9465 7.19242 18.0073 7.19242 16.8513C7.19242 15.0804 7.95883 13.5887 8.534 12.7968C8.31302 12.1034 8.1542 11.3918 8.05942 10.6703C7.99664 10.2154 7.99712 9.75387 8.06083 9.29901C8.13167 8.88393 8.30875 8.37393 8.77483 8.06651C9.22392 7.76759 9.75092 7.78034 10.1617 7.85684C10.5882 7.93759 11.0316 8.11468 11.4396 8.31726C12.104 8.64593 12.7642 9.08509 13.2586 9.45768C14.1114 9.20693 15.6202 8.88393 16.9844 8.85418H17.0156C18.3812 8.88393 19.822 9.20693 20.6536 9.45626C21.1494 9.08509 21.8082 8.64451 22.4712 8.31726C22.8792 8.11468 23.3212 7.93759 23.749 7.85684C24.1598 7.78034 24.6868 7.76759 25.1373 8.06509C25.602 8.37393 25.7805 8.88393 25.8499 9.29901C25.9222 9.73109 25.9052 10.2142 25.8499 10.6703C25.7556 11.3918 25.5972 12.1034 25.3767 12.7968C25.9519 13.5901 26.7183 15.0818 26.7183 16.8513C26.7183 18.0073 26.6758 18.9465 26.4208 19.8121C26.1559 20.7046 25.6842 21.4639 24.922 22.3168C24.2278 23.0917 23.1951 23.6031 22.2686 23.9318C21.7768 24.1046 21.2742 24.2452 20.7641 24.3525C20.9383 24.8795 21.0007 25.3059 21.0007 25.551V29.9285C21.0007 30.5943 21.3109 31.1624 21.7515 31.4939C22.1793 31.8183 22.729 31.9189 23.2928 31.6724C28.7328 29.2754 32.521 23.885 32.521 17.6049C32.521 9.09784 25.5793 2.18876 17 2.18876ZM13.4243 26.5058C13.056 26.5583 13.4229 26.5058 13.4229 26.5058H13.4187L13.4073 26.5087L13.3663 26.5143C13.1558 26.5391 12.9446 26.5566 12.733 26.5668C12.3335 26.5852 11.7852 26.5866 11.2228 26.5058C10.1022 26.3472 9.42083 25.5538 8.98025 25.0382L8.93775 24.99C8.7937 24.8229 8.63896 24.6653 8.4745 24.5183C8.62042 24.7874 8.772 25.0878 8.93492 25.4108L8.94908 25.4391L9.02133 25.5864C9.26925 26.0794 9.43217 26.4081 9.70275 26.6829C9.96625 26.9521 10.3771 27.2128 11.2072 27.3771L13.7487 27.7213C13.9263 27.7454 14.089 27.833 14.2068 27.968C14.3245 28.1029 14.3893 28.2761 14.3891 28.4552V29.9101C14.3891 31.0434 13.8578 32.0535 13.0432 32.6655C12.6156 32.9923 12.1068 33.1961 11.5718 33.2551C11.0368 33.314 10.4959 33.2257 10.0073 32.9998C4.11117 30.3549 0 24.4658 0 17.6063C0 8.26768 7.61742 0.708344 17 0.708344C26.3826 0.708344 34 8.26768 34 17.6063C34 24.5013 29.8364 30.4059 23.8893 33.0282C23.4003 33.2498 22.8603 33.3343 22.3271 33.2726C21.7938 33.211 21.2873 33.0055 20.8618 32.6783C20.4411 32.3544 20.1012 31.9374 19.8686 31.4601C19.6361 30.9827 19.5174 30.458 19.5217 29.9271V25.5496C19.5217 25.4504 19.4522 24.8781 19.0655 24.1088C19.0121 24.0022 18.9852 23.8842 18.9871 23.765C18.989 23.6457 19.0196 23.5286 19.0763 23.4237C19.133 23.3188 19.2141 23.229 19.3129 23.1621C19.4116 23.0952 19.525 23.0531 19.6435 23.0393C20.1294 22.9854 20.9482 22.8282 21.7742 22.5349C22.6157 22.2374 23.3707 21.8294 23.8198 21.3279C24.4871 20.5828 24.82 20.0104 25.0027 19.3913C25.1926 18.7496 25.2407 18.003 25.2407 16.8513C25.2407 15.2348 24.3907 13.8763 23.9997 13.4385C23.911 13.3396 23.8505 13.2186 23.8246 13.0882C23.7986 12.9579 23.8083 12.823 23.8524 12.6976C24.0507 12.1394 24.2916 11.271 24.3837 10.4961C24.429 10.1065 24.4318 9.78068 24.3922 9.54551C24.3833 9.45953 24.3573 9.37619 24.3157 9.30043C24.2181 9.28355 24.1181 9.2879 24.0224 9.31318C23.7816 9.35851 23.4742 9.47184 23.1257 9.64468C22.4315 9.98751 21.709 10.4947 21.2613 10.8573C21.1626 10.9374 21.0448 10.9906 20.9195 11.0117C20.7941 11.0328 20.6654 11.0211 20.5459 10.9778C19.3989 10.6026 18.2058 10.3866 17 10.336C15.5734 10.37 13.9272 10.7752 13.3648 10.9778C13.2453 11.0211 13.1166 11.0328 12.9913 11.0117C12.8659 10.9906 12.7481 10.9374 12.6494 10.8573C12.0705 10.3913 11.4458 9.98496 10.7851 9.64468C10.5013 9.49568 10.1994 9.38424 9.88692 9.31318C9.79167 9.2881 9.69215 9.28375 9.59508 9.30043C9.55344 9.37618 9.52743 9.45952 9.51858 9.54551C9.47892 9.78068 9.48175 10.1065 9.52708 10.4961C9.61917 11.271 9.86142 12.1394 10.0583 12.6976C10.1476 12.9526 10.0923 13.2359 9.911 13.4385C9.52 13.8763 8.67 15.2348 8.67 16.8513C8.67 18.0016 8.71817 18.7496 8.908 19.3913C9.09217 20.0104 9.42367 20.5813 10.0895 21.3279C10.54 21.8294 11.2937 22.2374 12.1366 22.5349C12.8262 22.779 13.54 22.9481 14.2658 23.0393C14.4152 23.0553 14.5561 23.1164 14.6698 23.2145C14.7835 23.3125 14.8647 23.4429 14.9026 23.5882C14.9404 23.7336 14.9331 23.887 14.8816 24.0281C14.8301 24.1691 14.7369 24.2912 14.6143 24.378C14.3806 24.5452 14.2262 24.8455 14.1397 25.1926C14.0951 25.3713 14.0686 25.554 14.0604 25.738V25.7649C14.0622 25.9445 13.9987 26.1187 13.8817 26.255C13.7647 26.3913 13.6022 26.4804 13.4243 26.5058V26.5058Z" fill="#118E5A"/>
</svg>
